# Blender 4.1.1
# www.blender.org
mtllib Enemy.mtl
o Enemy
v -1.000000 1.000000 1.000000
v -1.000000 -1.000000 1.000000
v -1.000000 1.000000 -1.000000
v -1.000000 -1.000000 -1.000000
v 1.000000 1.000000 1.000000
v 1.000000 -1.000000 1.000000
v 1.000000 1.000000 -1.000000
v 1.000000 -1.000000 -1.000000
v -0.774099 1.000000 0.774099
v 0.774099 1.000000 0.774099
v 0.774099 1.000000 -0.774099
v -0.774099 1.000000 -0.774099
v -0.774099 -0.774099 -1.000000
v -0.774099 0.774099 -1.000000
v 0.774099 0.774099 -1.000000
v 0.774099 -0.774099 -1.000000
v 1.000000 -0.774099 -0.774099
v 1.000000 0.774099 -0.774099
v 1.000000 0.774099 0.774099
v 1.000000 -0.774099 0.774099
v 0.774099 -1.000000 0.774099
v -0.774099 -1.000000 0.774099
v -0.774099 -1.000000 -0.774099
v 0.774099 -1.000000 -0.774099
v -1.000000 -0.774099 0.774099
v -1.000000 0.774099 0.774099
v -1.000000 0.774099 -0.774099
v -1.000000 -0.774099 -0.774099
v 0.774099 -0.774099 1.000000
v 0.774099 0.774099 1.000000
v -0.774099 0.774099 1.000000
v -0.774099 -0.774099 1.000000
vn -0.0000 1.0000 -0.0000
vn -0.0000 -0.0000 -1.0000
vn 1.0000 -0.0000 -0.0000
vn -0.0000 -1.0000 -0.0000
vn -1.0000 -0.0000 -0.0000
vn -0.0000 -0.0000 1.0000
vt 0.430178 0.697652
vt 0.318609 0.809222
vt 0.318609 0.697652
vt 0.286050 0.841780
vt 0.174481 0.953350
vt 0.174481 0.841780
vt 0.286050 0.409396
vt 0.174481 0.520966
vt 0.174481 0.409396
vt 0.141923 0.697652
vt 0.030353 0.809222
vt 0.030353 0.697652
vt 0.286050 0.697652
vt 0.174481 0.809222
vt 0.174481 0.697652
vt 0.286050 0.553524
vt 0.174481 0.665094
vt 0.174481 0.553524
vt 0.931770 0.455044
vt 0.779110 0.474483
vt 0.759671 0.455044
vt 0.931770 0.627143
vt 0.912331 0.474483
vt 0.759671 0.627143
vt 0.912331 0.607704
vt 0.779110 0.607704
vt 0.607011 0.646582
vt 0.587573 0.627143
vt 0.759671 0.799242
vt 0.740233 0.646582
vt 0.587573 0.799242
vt 0.740233 0.779803
vt 0.607011 0.779803
vt 0.759671 0.110847
vt 0.607011 0.130286
vt 0.587573 0.110847
vt 0.759671 0.282946
vt 0.740233 0.130286
vt 0.587573 0.282946
vt 0.740233 0.263507
vt 0.607011 0.263507
vt 0.587573 0.455044
vt 0.434913 0.474483
vt 0.415474 0.455044
vt 0.568134 0.474483
vt 0.415474 0.627143
vt 0.568134 0.607704
vt 0.434913 0.607704
vt 0.607011 0.474483
vt 0.740233 0.474483
vt 0.740233 0.607704
vt 0.607011 0.607704
vt 0.607011 0.302384
vt 0.740233 0.302384
vt 0.740233 0.435606
vt 0.607011 0.435606
vt 0.430178 0.809222
vt 0.286051 0.953349
vt 0.286051 0.520966
vt 0.141923 0.809222
vt 0.286051 0.809222
vt 0.286051 0.665094
s 0
usemtl Material
f 10/1/1 12/2/1 9/3/1
f 14/4/2 16/5/2 13/6/2
f 18/7/3 20/8/3 17/9/3
f 22/10/4 24/11/4 21/12/4
f 26/13/5 28/14/5 25/15/5
f 30/16/6 32/17/6 29/18/6
f 5/19/1 9/20/1 1/21/1
f 7/22/1 10/23/1 5/19/1
f 3/24/1 11/25/1 7/22/1
f 1/21/1 12/26/1 3/24/1
f 3/24/2 13/27/2 4/28/2
f 7/29/2 14/30/2 3/24/2
f 8/31/2 15/32/2 7/29/2
f 4/28/2 16/33/2 8/31/2
f 7/34/3 17/35/3 8/36/3
f 5/37/3 18/38/3 7/34/3
f 6/39/3 19/40/3 5/37/3
f 8/36/3 20/41/3 6/39/3
f 2/42/4 21/43/4 6/44/4
f 4/28/4 22/45/4 2/42/4
f 8/46/4 23/47/4 4/28/4
f 6/44/4 24/48/4 8/46/4
f 1/21/5 25/49/5 2/42/5
f 3/24/5 26/50/5 1/21/5
f 4/28/5 27/51/5 3/24/5
f 2/42/5 28/52/5 4/28/5
f 5/37/6 29/53/6 6/39/6
f 1/21/6 30/54/6 5/37/6
f 2/42/6 31/55/6 1/21/6
f 6/39/6 32/56/6 2/42/6
f 10/1/1 11/57/1 12/2/1
f 14/4/2 15/58/2 16/5/2
f 18/7/3 19/59/3 20/8/3
f 22/10/4 23/60/4 24/11/4
f 26/13/5 27/61/5 28/14/5
f 30/16/6 31/62/6 32/17/6
f 5/19/1 10/23/1 9/20/1
f 7/22/1 11/25/1 10/23/1
f 3/24/1 12/26/1 11/25/1
f 1/21/1 9/20/1 12/26/1
f 3/24/2 14/30/2 13/27/2
f 7/29/2 15/32/2 14/30/2
f 8/31/2 16/33/2 15/32/2
f 4/28/2 13/27/2 16/33/2
f 7/34/3 18/38/3 17/35/3
f 5/37/3 19/40/3 18/38/3
f 6/39/3 20/41/3 19/40/3
f 8/36/3 17/35/3 20/41/3
f 2/42/4 22/45/4 21/43/4
f 4/28/4 23/47/4 22/45/4
f 8/46/4 24/48/4 23/47/4
f 6/44/4 21/43/4 24/48/4
f 1/21/5 26/50/5 25/49/5
f 3/24/5 27/51/5 26/50/5
f 4/28/5 28/52/5 27/51/5
f 2/42/5 25/49/5 28/52/5
f 5/37/6 30/54/6 29/53/6
f 1/21/6 31/55/6 30/54/6
f 2/42/6 32/56/6 31/55/6
f 6/39/6 29/53/6 32/56/6
