# Blender 4.1.1
# www.blender.org
mtllib enemy_laser.mtl
o Cube
v -1.000000 -1.000000 1.000000
v 1.000000 -1.000000 1.000000
v -1.000000 -1.000000 -1.000000
v 1.000000 -1.000000 -1.000000
v -1.000000 1.000000 1.000000
v 1.000000 1.000000 1.000000
v -1.000000 1.000000 -1.000000
v 1.000000 1.000000 -1.000000
v 1.000000 -1.000000 1.000000
v 1.000000 1.000000 1.000000
v -1.000000 -1.000000 1.000000
v 1.000000 1.000000 -1.000000
v -1.000000 1.000000 -1.000000
v -1.000000 -1.000000 -1.000000
v 1.000000 -1.000000 -1.000000
v -1.000000 1.000000 1.000000
v 1.000000 1.000000 1.000000
v 1.000000 1.000000 -1.000000
v -1.000000 -1.000000 1.000000
v 1.000000 -1.000000 1.000000
v -1.000000 1.000000 -1.000000
v -1.000000 -1.000000 -1.000000
v 1.000000 -1.000000 -1.000000
v -1.000000 1.000000 1.000000
v 1.000000 -1.000000 1.000000
v 1.000000 1.000000 1.000000
v -1.000000 -1.000000 1.000000
v 1.000000 1.000000 -1.000000
v -1.000000 1.000000 -1.000000
v -1.000000 -1.000000 -1.000000
v 1.000000 -1.000000 -1.000000
v -1.000000 1.000000 1.000000
v 1.000000 -0.625000 1.000000
v -1.000000 -0.625000 -1.000000
v 1.000000 -0.625000 1.000000
v -1.000000 -0.625000 -1.000000
v 1.000000 -0.625000 1.000000
v -1.000000 -0.625000 -1.000000
v 1.000000 -0.625000 -1.000000
v -1.000000 -0.625000 1.000000
v 1.000000 -0.625000 -1.000000
v -1.000000 -0.625000 1.000000
v 1.000000 -0.625000 -1.000000
v -1.000000 -0.625000 1.000000
v 1.000000 0.625000 -1.000000
v -1.000000 0.625000 1.000000
v 1.000000 0.625000 -1.000000
v -1.000000 0.625000 1.000000
v 1.000000 0.625000 -1.000000
v -1.000000 0.625000 1.000000
v 1.000000 0.625000 1.000000
v -1.000000 0.625000 -1.000000
v 1.000000 0.625000 1.000000
v -1.000000 0.625000 -1.000000
v 1.000000 0.625000 1.000000
v -1.000000 0.625000 -1.000000
v 1.000000 1.000000 0.625000
v -1.000000 -1.000000 0.625000
v 1.000000 1.000000 0.625000
v -1.000000 -1.000000 0.625000
v -1.000000 1.000000 0.625000
v 1.000000 -1.000000 0.625000
v -1.000000 1.000000 0.625000
v 1.000000 -1.000000 0.625000
v -1.000000 1.000000 -0.626120
v 1.000000 -1.000000 -0.626120
v -1.000000 1.000000 -0.626120
v 1.000000 -1.000000 -0.626120
v 1.000000 1.000000 -0.626120
v -1.000000 -1.000000 -0.626120
v 1.000000 1.000000 -0.626120
v -1.000000 -1.000000 -0.626120
vn -1.0000 -0.0000 -0.0000
vn -0.0000 -0.0000 -1.0000
vn -0.0000 -0.0000 1.0000
vn -1.0000 -0.0001 -0.0000
vn -0.0000 1.0000 -0.0000
vn -0.0000 -0.0000 -0.0000
vn -0.0000 -1.0000 -0.0000
vn 1.0000 -0.0000 -0.0000
vt 0.625000 0.500000
vt 0.625000 0.453125
vt 0.625000 1.000000
vt 0.625000 0.953125
vt 0.375000 0.500000
vt 0.375000 0.453125
vt 0.000000 0.000000
vt 0.328125 0.500000
vt 0.375000 1.000000
vt 0.375000 0.953125
vt 0.171875 0.750000
vt 0.125000 0.750000
vt 0.625000 0.203125
vt 0.375000 0.250000
vt 0.375000 0.203125
vt 0.625000 0.000000
vt 0.375000 0.000000
vt 0.375000 0.750000
vt 0.625000 0.750000
vt 0.625000 0.250000
vt 0.625000 0.703265
vt 0.375000 0.703265
vt 0.625000 0.046735
vt 0.671875 0.750000
vt 0.828125 0.500000
vt 0.875000 0.500000
vt 0.171875 0.500000
vt 0.828125 0.750000
vt 0.375000 0.296875
vt 0.625000 0.796875
vt 0.625000 0.296875
vt 0.375000 0.796875
vt 0.671875 0.500000
vt 0.328125 0.750000
vt 0.125000 0.703265
vt 0.875000 0.750000
vt 0.125000 0.500000
vt 0.875000 0.703265
vt 0.625000 0.546875
vt 0.375000 0.546875
vt 0.125000 0.546875
vt 0.375000 0.046735
vt 0.875000 0.546875
s 0
usemtl Material.002
f 1/1/1 42/2/1 27/1/2
f 7/3/1 54/4/1 29/3/2
f 44/2/3 2/5/3 37/6/3
f 25/7/1 19/7/4 20/7/2
f 28/7/1 21/7/4 18/7/2
f 30/7/1 23/7/1 22/7/2
f 32/7/1 17/7/1 24/7/2
f 35/8/1 20/5/1 33/8/2
f 56/4/2 8/9/2 49/10/2
f 47/11/1 18/12/1 45/11/2
f 63/13/5 10/14/5 59/15/5
f 11/1/1 20/5/1 19/1/2
f 13/16/1 18/17/1 21/16/2
f 15/18/1 22/19/4 23/18/2
f 10/14/1 24/20/4 17/14/2
f 59/15/6 17/14/6 57/15/6
f 72/21/7 15/18/7 68/22/7
f 67/23/6 21/16/6 65/23/6
f 36/24/1 22/19/1 34/24/2
f 2/5/1 27/1/4 25/5/2
f 8/9/1 29/3/4 28/9/2
f 3/19/1 31/18/1 30/19/2
f 5/20/1 26/14/1 32/20/2
f 37/6/1 25/5/1 35/6/2
f 48/25/1 24/26/1 46/25/2
f 49/10/1 28/9/1 47/10/2
f 68/22/6 23/18/6 66/22/6
f 35/8/1 51/27/2 53/27/1
f 36/24/1 52/28/2 54/28/1
f 37/6/1 53/29/2 55/29/1
f 38/30/1 54/4/2 56/4/1
f 50/31/1 42/2/2 44/2/1
f 4/18/1 41/32/1 31/18/2
f 27/1/1 40/33/1 19/1/2
f 31/18/1 39/34/1 23/18/2
f 38/30/2 4/18/2 3/19/2
f 38/30/1 30/19/1 36/30/2
f 69/35/8 45/11/8 18/12/8
f 44/2/3 55/29/3 50/31/3
f 6/14/1 53/29/1 26/14/2
f 29/36/1 52/28/1 21/36/2
f 26/37/1 51/27/1 17/37/2
f 50/31/3 6/14/3 5/20/3
f 50/31/1 32/20/1 48/31/2
f 66/22/8 23/18/8 39/34/8
f 56/4/2 43/32/2 38/30/2
f 47/11/1 39/34/2 41/34/1
f 48/25/1 40/33/2 42/33/1
f 49/10/1 41/32/2 43/32/1
f 65/38/1 34/24/1 58/39/1
f 70/21/1 34/24/1 22/19/1
f 60/39/6 70/21/6 72/21/6
f 67/23/6 61/13/6 63/13/6
f 68/22/6 62/40/6 64/40/6
f 66/22/8 45/11/8 57/41/8
f 72/21/7 64/40/7 60/39/7
f 12/17/6 69/42/6 18/17/6
f 67/23/5 12/17/5 13/16/5
f 65/38/1 21/36/1 52/28/1
f 9/5/6 62/40/6 20/5/6
f 16/20/6 61/13/6 24/20/6
f 60/39/7 9/5/7 11/1/7
f 20/5/8 62/40/8 33/8/8
f 63/13/5 71/42/5 67/23/5
f 59/15/6 69/42/6 71/42/6
f 17/37/8 51/27/8 57/41/8
f 19/1/1 40/33/1 58/39/1
f 24/26/1 61/43/1 46/25/1
f 60/39/6 19/1/6 58/39/6
f 14/19/6 70/21/6 22/19/6
f 1/1/1 44/2/2 42/2/1
f 7/3/1 56/4/2 54/4/1
f 44/2/3 1/1/3 2/5/3
f 25/7/1 27/7/2 19/7/1
f 28/7/1 29/7/2 21/7/1
f 30/7/4 31/7/2 23/7/1
f 32/7/4 26/7/2 17/7/1
f 35/8/1 25/5/2 20/5/1
f 56/4/2 7/3/2 8/9/2
f 47/11/1 28/12/2 18/12/1
f 63/13/5 16/20/5 10/14/5
f 11/1/4 9/5/2 20/5/1
f 13/16/4 12/17/2 18/17/1
f 15/18/1 14/19/2 22/19/1
f 10/14/1 16/20/2 24/20/1
f 59/15/6 10/14/6 17/14/6
f 72/21/7 14/19/7 15/18/7
f 67/23/6 13/16/6 21/16/6
f 36/24/1 30/19/2 22/19/1
f 2/5/1 1/1/2 27/1/1
f 8/9/1 7/3/2 29/3/1
f 3/19/4 4/18/2 31/18/1
f 5/20/4 6/14/2 26/14/1
f 37/6/1 2/5/2 25/5/1
f 48/25/1 32/26/2 24/26/1
f 49/10/1 8/9/2 28/9/1
f 68/22/6 15/18/6 23/18/6
f 35/8/2 33/8/1 51/27/1
f 36/24/2 34/24/1 52/28/1
f 37/6/2 35/6/1 53/29/1
f 38/30/2 36/30/1 54/4/1
f 50/31/2 48/31/1 42/2/1
f 4/18/1 43/32/2 41/32/1
f 27/1/1 42/33/2 40/33/1
f 31/18/1 41/34/2 39/34/1
f 38/30/2 43/32/2 4/18/2
f 38/30/1 3/19/2 30/19/1
f 44/2/3 37/6/3 55/29/3
f 6/14/1 55/29/2 53/29/1
f 29/36/1 54/28/2 52/28/1
f 26/37/1 53/27/2 51/27/1
f 50/31/3 55/29/3 6/14/3
f 50/31/1 5/20/2 32/20/1
f 56/4/2 49/10/2 43/32/2
f 47/11/2 45/11/1 39/34/1
f 48/25/2 46/25/1 40/33/1
f 49/10/2 47/10/1 41/32/1
f 58/39/1 40/33/1 46/25/1
f 46/25/1 61/43/1 65/38/1
f 65/38/1 52/28/1 34/24/1
f 34/24/1 70/21/1 58/39/1
f 58/39/1 46/25/1 65/38/1
f 60/39/6 58/39/6 70/21/6
f 67/23/6 65/23/6 61/13/6
f 68/22/6 66/22/6 62/40/6
f 57/41/8 51/27/8 33/8/8
f 33/8/8 62/40/8 66/22/8
f 66/22/8 39/34/8 45/11/8
f 45/11/8 69/35/8 57/41/8
f 57/41/8 33/8/8 66/22/8
f 72/21/7 68/22/7 64/40/7
f 12/17/6 71/42/6 69/42/6
f 67/23/5 71/42/5 12/17/5
f 9/5/6 64/40/6 62/40/6
f 16/20/6 63/13/6 61/13/6
f 60/39/7 64/40/7 9/5/7
f 63/13/5 59/15/5 71/42/5
f 59/15/6 57/15/6 69/42/6
f 60/39/6 11/1/6 19/1/6
f 14/19/6 72/21/6 70/21/6
